<svg width="9" height="14" viewBox="0 0 9 14" fill="none" xmlns="http://www.w3.org/2000/svg">
<path d="M8.01104 1.54894C8.31421 1.2667 8.33118 0.792128 8.04894 0.488957C7.7667 0.185786 7.29213 0.168819 6.98896 0.45106L8.01104 1.54894ZM1.81461 6.29289L2.32566 6.84183H2.32566L1.81461 6.29289ZM1.81461 7.70711L2.32566 7.15817H2.32566L1.81461 7.70711ZM6.98896 13.5489C7.29213 13.8312 7.7667 13.8142 8.04894 13.511C8.33118 13.2079 8.31421 12.7333 8.01104 12.4511L6.98896 13.5489ZM6.98896 0.45106L1.30357 5.74395L2.32566 6.84183L8.01104 1.54894L6.98896 0.45106ZM1.30357 8.25605L6.98896 13.5489L8.01104 12.4511L2.32566 7.15817L1.30357 8.25605ZM1.30357 5.74395C0.565477 6.43109 0.565477 7.56891 1.30357 8.25605L2.32566 7.15817C2.26812 7.10461 2.25 7.04745 2.25 7C2.25 6.95255 2.26812 6.89539 2.32566 6.84183L1.30357 5.74395Z" fill="#AAAFB3"/>
</svg>
