<svg width="9" height="14" viewBox="0 0 9 14" fill="none" xmlns="http://www.w3.org/2000/svg">
<path d="M0.988958 12.4511C0.685787 12.7333 0.66882 13.2079 0.951062 13.511C1.2333 13.8142 1.70787 13.8312 2.01104 13.5489L0.988958 12.4511ZM7.18539 7.70711L6.67434 7.15817L6.67434 7.15817L7.18539 7.70711ZM7.18539 6.29289L6.67434 6.84183L6.67434 6.84183L7.18539 6.29289ZM2.01105 0.451062C1.70787 0.168821 1.2333 0.185788 0.951063 0.488959C0.668821 0.792129 0.685788 1.2667 0.988959 1.54894L2.01105 0.451062ZM2.01104 13.5489L7.69643 8.25605L6.67434 7.15817L0.988958 12.4511L2.01104 13.5489ZM7.69643 5.74396L2.01105 0.451062L0.988959 1.54894L6.67434 6.84183L7.69643 5.74396ZM7.69643 8.25605C8.43452 7.56891 8.43452 6.43109 7.69643 5.74395L6.67434 6.84183C6.73188 6.8954 6.75 6.95255 6.75 7C6.75 7.04745 6.73188 7.10461 6.67434 7.15817L7.69643 8.25605Z" fill="#AAAFB3"/>
</svg>
